<svg enable-background="new 0 0 245 163" version="1.1" viewBox="0 0 245 163" xml:space="preserve" xmlns="http://www.w3.org/2000/svg">
<polygon class="logo-moose-letters" transform="translate(0,1)" points="82.143 114.64 82.23 70.105 92.272 70.125 96.423 79.118 99.093 70.138 110.65 70.161 110.56 114.69 103.36 114.68 103.61 86.322 96.38 100.69 90.149 89.891 90.857 114.65" fill="#8cc63e" stroke="#000" stroke-miterlimit="10" stroke-width="2"/>
<polygon class="logo-moose-letters" transform="translate(0,1)" points="188.74 70.438 188.71 83.82 174.28 82.271 174.27 90.456 188.69 92.583 188.65 114.85 168.35 114.81 168.37 105.22 182.19 103.96 181.61 97.324 168.39 96.437 168.44 70.398" fill="#8cc63e" stroke="#000" stroke-miterlimit="10" stroke-width="2"/>
<polygon class="logo-moose-letters" transform="translate(0,1)" points="193.07 70.448 192.98 114.86 208.7 114.89 208.73 104.1 198.68 104.88 198.85 96.038 208.74 96.117 208.75 90.406 198.54 89.848 198.46 82.946 208.77 82.738 208.79 70.357" fill="#8cc63e" stroke="#000" stroke-miterlimit="10" stroke-width="2"/>
<path class="logo-moose-letters" transform="translate(0,1)" d="m135.66 70.333l-0.09 44.41-21.978-0.045 0.088-44.41 21.98 0.045zm-15.219 30.601l8.902 1.017-0.153-17.773-9.086-2.611 0.337 19.367z" fill="#8cc63e" stroke="#000" stroke-miterlimit="10" stroke-width="2"/>
<path class="logo-moose-letters" transform="translate(0,1)" d="m164.46 70.269l-0.089 44.532-23.913-0.048 0.085-44.41 23.917-0.074zm-17.117 33.115l9.095-0.779-0.586-16.599-8.272 0.601-0.237 16.777z" fill="#8cc63e" stroke="#000" stroke-miterlimit="10" stroke-width="2"/>
<polygon class="logo-zeus-letters" points="40.611 38.886 40.655 26.552 66.215 26.642 66.161 41.572 51.933 59.537 66.098 59.586 66.062 69.811 40.502 69.72 40.542 58.523 56.008 38.777" fill="#f73b73" stroke="#000" stroke-miterlimit="10" stroke-width="2"/>
<polygon class="logo-zeus-letters" points="70.371 26.655 70.22 69.825 90.38 69.897 90.412 61.295 76.561 61.733 76.126 53.45 90.44 53.018 90.467 45.392 76.312 44.691 76.344 35.928 90.503 35.004 90.535 26.728" fill="#f73b73" stroke="#000" stroke-miterlimit="10" stroke-width="2"/>
<polygon class="logo-zeus-letters" points="94.545 26.742 94.393 69.911 116.84 69.99 117 26.822 110.33 26.798 110.21 60.598 100.73 62.954 100.6 26.764" fill="#f73b73" stroke="#000" stroke-miterlimit="10" stroke-width="2"/>
<polygon class="logo-zeus-letters" points="143.51 26.915 143.47 37.951 127.61 37.896 127.13 48.441 143.44 45.903 143.36 70.083 121.49 70.007 121.52 62.217 139.07 62.117 139.1 53.029 121.54 56.699 121.64 26.838" fill="#f73b73" stroke="#000" stroke-miterlimit="10" stroke-width="2"/>
	<line fill="none" stroke="#000" stroke-miterlimit="10" stroke-width="0" y1="70.5" y2="70.5" x1="23" x2="209.5" />
<g id="logo-zeus">
	<path d="m28.919 114.98s0.83-33.373-2.813-37.063c-0.911-0.922-4.292-2.802-5.997-5.931-1.704-3.131-1.062-4.922 1.739-5.972 2.798-1.05 6.187 0.675 7.641 3.329 1.45 2.656 3.477 7.443 3.944 10.719 0.436 3.043 3.34 31.721 1.218 36.046" fill="#f73b73" stroke="#000" stroke-width=".5"/>
	<path d="m28.175 86.086s1.574-4.479-2.069-8.169c-0.911-0.922-4.292-2.802-5.997-5.931-0.817-1.502 2.309-0.685 4.552-1.317 2.435-0.686 4.072-2.708 4.828-1.326 0.339 0.623 1.236 1.741 0.182 3.904-1.055 2.162-3.896 2.271-3.538 3.177 0.807 2.046 3.666 3.971 3.914 5.708" fill="#000" opacity=".2"/>
	<g id="logo-zeus-body">
		<path d="m32.873 79.178c5.954-2.236 11.561 1.064 13.455 6.108 1.894 5.041-2.167 11.763 0.961 20.089s19.424 3.725 24.081 16.121 3.341 24.396-12.516 30.353c-15.856 5.957-27.689-3.395-31.842-14.451-4.154-11.059 2.603-18.172-1.962-30.323s-18.545-17.992 7.823-27.897z" fill="#f73b73" stroke="#000" stroke-width=".5"/>
		<path d="m24.366 82.944c2.198-1.201-6.045 0.542-1.47 12.446 2.289 5.951 4.512 5.696 6.156 6.956 1.644 1.259 5.952 0.55 6.92 2.577 0.55 1.147-4.175 6.839-4.749 8.898-1.452 5.222-4.557 13.503 0.557 25.528 7.131 16.767 32.576 10.432 27.074 12.498-15.856 5.957-27.689-3.395-31.842-14.451-4.154-11.059 2.603-18.172-1.962-30.323-3.957-10.532-14.987-16.322-0.684-24.129z" fill="#000" fill-opacity=".2"/>
		<path d="m33.193 82.246c-3.723 2.183-4.205 6.155-1.286 10.604 2.92 4.449 7.234 4.492 10.422 0.799 3.188-3.692 4.127-7.097-0.05-10.102-4.18-3.004-5.79-3.232-9.086-1.301z" fill="#000" opacity=".2"/>
		<g id="zeus-face">
			<path d="m33.649 81.244c-3.722 2.182-4.205 6.154-1.286 10.604s8.504 3.499 10.422 0.8c0.866-1.218 2.051-2.589 2.276-4.252 0.272-2.023-0.644-4.361-2.327-5.851-3.067-2.717-5.79-3.232-9.085-1.301z" fill="#fff" stroke="#000" stroke-width=".5"/>
			<path id="logo-zeus-eye-r" d="m43.372 87.084c0.361 1.289-0.304 2.493-1.222 2.205-0.916-0.287-0.834-1.085-1.091-2.518-0.257-1.436-0.168-2.231 0.748-1.943 0.918 0.287 1.206 0.966 1.565 2.256z" fill="#000" stroke="#000"/>
			<path id="logo-zeus-eye-l" d="m39.021 87.084c0.417 1.491-0.352 2.882-1.412 2.549-1.059-0.331-0.966-1.256-1.262-2.912-0.297-1.657-0.196-2.578 0.865-2.247 1.061 0.335 1.392 1.119 1.809 2.61z" fill="#000" stroke="#000"/>
		</g>
	</g>
	<path d="m39.873 111.1s11.587-8.798 12.228-11.979c0.642-3.183-0.048-19.802-0.697-22.343-0.321-1.255-2.233-3.18-2.125-6.744 0.108-3.561 2.624-4.718 5.57-4.213 2.947 0.506 3.886 2.234 3.801 5.259-0.085 3.026-1.607 4.183-2.854 7.243-0.554 1.361 3.132 18.645 1.912 22.612-1.22 3.964-8.517 16.589-10.612 17.979 0 0-2.934 2.601-6.732-1.284-3.801-3.883-0.491-6.53-0.491-6.53z" fill="#f73b73" stroke="#000" stroke-linecap="round" stroke-width=".5"/>
	<path d="m19.284 69.989c0.554 2.937 2.165 5.197 6.017 4.66 3.851-0.536 6.294-4.788 3.129-6.742" fill="#f73b73" stroke="#000" stroke-linecap="round" stroke-width=".5"/>
	<path d="m39.873 111.1s1.309 8.259 5.222 6.26c3.957-2.019 13.832-20.393 12.612-16.425-1.22 3.964-8.517 16.589-10.612 17.979 0 0-2.666 2.75-6.732-1.284-4.067-4.034-0.49-6.53-0.49-6.53z" fill="#000" opacity=".2"/>
</g>
<g id="logo-moose">
	<path d="m185.62 61.09s1.5 7.035-1.28 7.802c-2.781 0.765-7.125-8.684-7.125-8.684" fill="#8cc63e" stroke="#000" stroke-width=".5"/>
	<path d="m203.93 61.388s0.989 7.122-1.838 7.687c-2.83 0.566-5.157-6.377-5.157-6.377" fill="#8cc63e" stroke="#000" stroke-width=".5"/>
	<path d="m220.96 61.247s2.034 6.898-0.678 7.876c-2.713 0.978-6.473-6.959-6.473-6.959" fill="#8cc63e" stroke="#000" stroke-width=".5"/>
	<path class="logo-moose-head" d="m163.15 35.333s-3.734-0.129-5.233-3.055c-1.498-2.926 5.106-2.229 4.847-4.291-0.265-2.063-5.21 0.656-5.483-1.591-0.272-2.249 5.803-1.54 5.908-3.5 0.104-1.959-6.103 1.465-5.852-1.521s5.479-0.767 5.927-2.715c0.447-1.948-6.354-1.431-8.461 1.173-2.107 2.605-1.765 11.119 0.662 14.559 2.427 3.438 4.77 3.662 7.659 3.433 2.886-0.227 2.491-2.602 0.026-2.492z" fill="#fff" stroke="#000" stroke-miterlimit="10" stroke-width=".5"/>
	<path class="logo-moose-head" d="m163.08 36.896c-1.633 0.345-5.059-0.712-7.19-3.921-2.128-3.21-1.301-9.737-1.092-13.143-2.107 2.605-1.765 11.119 0.662 14.559 2.427 3.438 4.77 3.662 7.659 3.433 2.887-0.226 0.835-1.112-0.039-0.928z" fill="#000" opacity=".2"/>
	<path d="m203.93 61.388s0.989 7.122-1.838 7.687c-2.83 0.566-5.157-6.377-5.157-6.377" fill="#000" opacity=".2"/>
	<path d="m220.96 61.247s2.034 6.898-0.678 7.876c-2.713 0.978-6.473-6.959-6.473-6.959" fill="#000" opacity=".2"/>
	<path d="m185.62 61.09s1.5 7.035-1.28 7.802c-2.781 0.765-7.125-8.684-7.125-8.684" fill="#000" opacity=".2"/>
	<path d="m223.47 38.428c7.888 8.938 4.827 24.122-7.779 25.488s-36.888 2.411-43.055-6.215c-6.165-8.626-2.947-8.573-6.518-11.11-3.573-2.539-8.508-11.43-0.521-16.409 5.07-3.162 10.455-0.781 15.68 2.52 5.673 3.583 11.153 8.251 15.835 8.09 8.992-0.309 19.662-9.956 26.358-2.364z" fill="#8cc63e" stroke="#000" stroke-width=".5"/>
	<path d="m215.69 63.916c-12.606 1.366-36.888 2.411-43.055-6.215-6.165-8.626-2.947-8.573-6.518-11.11-3.573-2.539-8.508-11.43-0.521-16.409 1.851-1.153-10.16 7.472 3.004 16.978 0.468 0.338 3.754 1.469 6.542 0.452 2.111-0.771 3.872-3.814 4.247-3.389 0.37 0.423-0.507 3.725-2.494 4.77-2.666 1.401-5.422 2.516-4.419 4.636 1.75 3.705 3.739 6.008 9.288 7.729 4.06 1.257 31.142 4.303 37.528 0.354 6.387-3.952 0.521 1.757-3.602 2.204z" fill="#000" opacity=".2"/>
	<g id="logo-moose-face" class="logo-moose-head">
		<path d="m172.89 31.78c3.219 0.744 5.232 4.68 3.903 9.179-1.327 4.498-3.734 5.7-8.431 4.581-4.696-1.118-5.33-7.336-3.644-10.024 1.691-2.691 4.953-4.479 8.172-3.736z" fill="#000" opacity=".2"/>
		<path d="m173.34 30.983c3.218 0.744 5.231 4.68 3.902 9.179s-3.734 5.7-8.432 4.583c-4.694-1.12-5.327-7.337-3.641-10.026 1.688-2.691 4.952-4.479 8.171-3.736z" fill="#fff" stroke="#000" stroke-width=".5"/>
		<path id="logo-moose-eye-l" d="m165.35 38.889c-0.034 1.413 0.955 2.474 1.821 1.941 0.864-0.53 0.574-1.326 0.467-2.86-0.108-1.534-0.403-2.327-1.267-1.795-0.865 0.531-0.984 1.3-1.021 2.714z" fill="#000" stroke="#000" stroke-width=".5"/>
		<path id="logo-moose-eye-r" d="m169.44 38.121c-0.042 1.634 1.104 2.861 2.105 2.245 0.997-0.613 0.663-1.535 0.538-3.306-0.122-1.775-0.466-2.69-1.465-2.076-0.999 0.615-1.137 1.503-1.178 3.137z" fill="#000" stroke="#000" stroke-width=".5"/>
	</g>
	<path d="m222.43 53.028s4.408 14.967 1.705 15.979c-2.701 1.013-8.418-10.652-8.418-10.652" fill="#8cc63e" stroke="#000" stroke-linecap="round" stroke-width=".5"/>
	<path d="m203.89 58.309s3.918 9.458 1.343 10.765c-2.576 1.306-8.963-10.999-8.963-10.999" fill="#8cc63e" stroke="#000" stroke-linecap="round" stroke-width=".5"/>
	<path d="m182.53 60s2.01 8.206-0.767 8.983c-2.776 0.775-6.901-13.341-6.901-13.341" fill="#8cc63e" stroke="#000" stroke-linecap="round" stroke-width=".5"/>
	<path class="logo-moose-head" d="m179.11 33.569s5.306-4.098 5.304-6.626c-3e-3 -2.529-4.929-0.581-5.192-2.499-0.265-1.918 6.484 0.17 6.051-3.856-0.436-4.028-6.022 0.738-7.013-1.669-0.99-2.405 7.482-2.296 4.727-5.327-2.758-3.03-6.367 2.729-7.541 1.036-1.172-1.692 4.863-6.83 8.632-4.221 3.77 2.609 4.847 5.926 4.291 12.131-0.553 6.203-0.744 10.313-8.211 13.079 0 0-0.599 0.229-1.145-0.838-0.545-1.069 0.097-1.21 0.097-1.21z" fill="#fff" stroke="#000" stroke-miterlimit="10" stroke-width=".5"/>
	<path class="logo-moose-head" d="m179.09 33.529s5.308-4.097 5.305-6.625c-4e-3 -2.53-4.928-0.601-5.192-2.5-0.102-0.737 0.318-0.648 0.836-0.783 0.596-0.156-0.404 0.631 0.267 0.969 0.672 0.337 2.636 0.334 3.247 0.506 1.56 0.435 1.468 1.392 1.327 2.593-0.145 1.201-0.487 1.968-2.46 4.188-1.345 1.518-2.409 1.484-2.346 2.359 0.064 0.875 0.783 0.972 0.064 1.339 0 0-0.597 0.229-1.145-0.838-0.547-1.067 0.097-1.208 0.097-1.208z" fill="#000" opacity=".2"/>
	<path d="m180.63 12.742c-2.181 0.283-4.326 3.122-5.182 1.887-0.356-0.517-0.044-1.355 0.674-2.197 0.548-0.641-0.733 1.989 0.385 1.467 1.116-0.524 2.208-1.261 4.123-1.157z" fill="#000" opacity=".2"/>
	<path d="m183.51 18.859c-2.844 0.363-4.6 1.637-5.264 0.021-0.401-0.972 0.743-1.534 2.068-2.057 0.957-0.379-1.845 1.064-1.179 1.653 0.699 0.612 1.91-0.464 4.375 0.383z" fill="#000" opacity=".2"/>
	<path d="m224.87 64.17c0.287 2.48 0.2 4.488-0.73 4.836-1.907 0.715-5.313-4.882-7.153-8.24-0.77-1.401 2.98 4.116 5.487 6.302 2.506 2.186 2.396-2.898 2.396-2.898z" fill="#000" opacity=".2"/>
	<path d="m205.94 65.066c0.317 1.866 0.269 3.515-0.702 4.007-2.576 1.306-8.963-10.999-8.963-10.999s5.103 7.963 7.247 9.301c2.142 1.337 2.247-3.321 2.418-2.309z" fill="#000" opacity=".2"/>
	<path d="m183.23 65.566c-0.024 1.654-0.375 3.111-1.469 3.417-2.776 0.775-6.901-13.341-6.901-13.341s3.731 9.951 5.714 11.596c1.983 1.644 2.694-4.22 2.656-1.672z" fill="#000" opacity=".2"/>
</g>
</svg>