<svg xmlns="http://www.w3.org/2000/svg" xmlns:xlink="http://www.w3.org/1999/xlink" width="139.5" height="139.5" xmlns:v="https://vecta.io/nano"><style><![CDATA[.B{opacity:.2}.C{stroke-width:.885}.D{stroke:#000}.E{fill:#fff}.F{fill:#8dc63f}.G{fill:#ef5ba1}.H{fill-opacity:.803}.I{stroke-miterlimit:10}.J{stroke-linecap:round}]]></style><defs><clipPath id="A"><circle cx="70.302" cy="70.135" r="68.065" stroke="#848484" stroke-opacity="1" class="E H"/></clipPath><path id="B" d="M119.869 139.567s.885 12.701-4.177 13.357-10.338-16.983-10.338-16.983"/><path id="C" d="M151.873 144.618s-.027 12.729-5.121 13.018-7.461-12.452-7.461-12.452"/><path id="D" d="M181.763 148.59s1.859 12.592-3.137 13.636-9.62-13.8-9.62-13.8"/></defs><circle cx="69.964" cy="69.968" r="68.065" stroke="#010101" stroke-width="1.5" paint-order="normal" class="E H"/><g clip-path="url(#A)" transform="matrix(.988965 0 0 .988965 .258557 .720904)"><g class="C D F"><use xlink:href="#B"/><use xlink:href="#C"/><use xlink:href="#D"/></g><path d="M86.846 88.861s-6.514-1.152-8.416-6.65 9.503-2.643 9.557-6.321-9.294-.138-9.216-4.145 10.551-1.262 11.221-4.671-11.058 1.057-9.88-4.116 9.79.012 11.06-3.291-10.783-4.082-15.118-.038-5.846 19.051-2.442 25.679 7.451 7.599 12.571 7.914c5.115.317 5.01-3.942.663-4.361z" class="C D E I"/><path d="M86.345 91.585c-2.948.202-8.69-2.499-11.631-8.651s.129-17.387 1.339-23.304c-4.339 4.043-5.846 19.051-2.442 25.679s7.451 7.599 12.571 7.914 1.739-1.744.163-1.638z" class="B"/><use xlink:href="#C" class="B"/><use xlink:href="#D" class="B"/><use xlink:href="#B" class="B"/><path d="M191.811 109.217c11.61 17.618 2.487 43.472-19.945 42.744s-65.246-4.904-73.916-21.548-3.046-15.755-8.676-21.085-12.08-22.137 3.149-28.887c9.671-4.286 18.519 1.219 26.857 8.295 9.055 7.684 17.505 17.223 25.75 18.1 15.836 1.686 36.923-12.582 46.781 2.381z" class="C D F"/><path d="M171.865 151.96c-22.431-.725-65.246-4.904-73.916-21.548s-3.046-15.755-8.676-21.085-12.08-22.137 3.149-28.887c3.53-1.564-19.653 10.58 1.063 30.498.738.708 6.217 3.503 11.354 2.41 3.891-.827 7.73-5.726 8.281-4.886.544.833-1.81 6.402-5.551 7.742-5.019 1.795-10.124 3.067-8.893 7.032 2.148 6.925 5.065 11.453 14.366 15.844 6.803 3.208 53.513 15.25 65.685 9.909 12.167-5.343.476 3.211-6.862 2.971zm-67.06-66.914c5.458 2.101 8.012 9.498 4.568 17.053s-7.954 9.065-15.908 5.942-7.527-14.177-3.904-18.47 9.788-6.623 15.244-4.525z" class="B"/><g class="C D"><path d="M105.797 83.762c5.454 2.1 8.007 9.497 4.565 17.052s-7.955 9.065-15.911 5.944c-7.949-3.123-7.521-14.177-3.898-18.472s9.784-6.622 15.244-4.524z" class="E"/><path d="M90.206 91.717c-1.415 2.063-.97 4.591.829 4.638s2.132-1.413 3.454-3.792 1.646-3.843-.149-3.887-2.715.979-4.134 3.041zm6.815 2.812c-1.638 2.384-1.124 5.308.956 5.362 2.074.053 2.467-1.636 3.991-4.386 1.53-2.751 1.902-4.441-.173-4.494s-3.136 1.133-4.774 3.518z"/><g class="F J"><path d="M186.374 134.549s4.021 27.321-.967 28.426-12.117-20.753-12.117-20.753m-17.722-3.009s4.527 17.547-.31 19.199-12.987-21.494-12.987-21.494m-27.563-.029s1.49 14.881-3.566 15.556-8.795-25.092-8.795-25.092"/></g><path d="M115.268 89.723s10.314-5.868 10.936-10.3-8.494-2.238-8.482-5.665 11.323 1.904 11.559-5.261-10.736-.196-11.877-4.66 13.682-2.172 9.602-8.167-11.834 3.208-13.473-.05 10.216-10.767 16.174-5.261 7.026 11.586 4.519 22.322-3.857 17.891-17.629 20.889c0 0-1.105.253-1.798-1.751s.469-2.096.469-2.096z" class="E I"/></g><path d="M115.24 89.646s10.316-5.867 10.937-10.299-8.489-2.272-8.48-5.665c.002-1.318.717-1.058 1.655-1.166 1.087-.125-.862 1.007.23 1.765s4.535 1.24 5.564 1.691c2.627 1.147 2.229 2.802 1.685 4.872-.55 2.07-1.343 3.327-5.348 6.733-2.731 2.325-4.591 2.004-4.695 3.553s1.132 1.898-.218 2.363c0 0-1.104.255-1.799-1.752s.469-2.095.469-2.095zm7.839-36.05c-3.89-.043-8.354 4.401-9.548 2.025-.497-.995.26-2.386 1.727-3.685 1.118-.987-1.776 3.305.311 2.666s4.181-1.662 7.51-1.006zm3.527 11.433c-5.074-.068-8.465 1.731-9.23-1.268-.462-1.802 1.684-2.503 4.135-3.092 1.772-.427-3.496 1.408-2.475 2.604 1.071 1.246 3.463-.339 7.57 1.756zm61.28 89.65c-.11 4.418-.762 7.916-2.479 8.295-3.521.781-8.101-9.871-10.499-16.21-1-2.647 4.206 7.951 8.058 12.402s4.92-4.487 4.92-4.487zm-30.407-3.114c.094 3.346-.4 6.225-2.221 6.847-4.84 1.652-12.987-21.494-12.987-21.494s6.973 15.22 10.397 18.093 4.764-5.263 4.811-3.446zm-42.918-4.745c-.451 2.893-1.428 5.358-3.419 5.625-5.059.671-8.795-25.092-8.795-25.092s4.077 18.366 7.145 21.738 5.765-6.729 5.069-2.271z" class="B"/><path d="M12.449 5.479s56.227 18.168 60.256 26.414c1.003 2.061 2.166 8.809 6.393 13.49s7.599 4.657 10.994.595 2.496-10.729-1.085-14.708c-3.586-3.98-10.396-10.171-15.59-12.872-4.827-2.511-51.022-24.165-59.49-23.153" class="C D G"/><path d="M49.813 18.875s13.141 6.039 16.472 7.877c2.162 1.193 4.835 1.896 6.421 5.141 1.003 2.061 2.166 8.809 6.393 13.49 2.028 2.244 2.496-3.455 4.865-6.828 2.573-3.667 6.909-5.215 5.044-7.286-.841-.934-2.184-3.087-6.414-2.594s-6.076 5.178-7.379 4.047c-1.684-1.457.062-1.951-3.901-4.847-2.963-2.166-19.446-9.825-20.625-10.438" class="B"/><path d="M47.121 77.017c11.23-.787 17.823-10.229 17.159-19.742S52.126 39.94 51.028 24.235 79.546 3.933 77.909-19.448s-12.594-41.726-42.5-39.631S-6.655-33.22-5.195-12.366s17.574 27.329 19.178 50.249-16.594 42.615 33.138 39.134z" class="C D G"/><path fill-opacity=".2" d="M30.656 77.221c4.423.313-10.127 3.582-11.534-18.948-.7-11.265 3.066-12.49 4.786-15.729s9.174-5.27 9.238-9.247c.039-2.251-11.757-7.932-14.198-10.825C12.768 15.14 1.669 4.097 1.041-19.022.166-51.26 45.787-59.806 35.409-59.079 5.5-56.987-6.655-33.22-5.195-12.366s17.574 27.329 19.178 50.249c1.392 19.865-12.097 37.31 16.673 39.338z"/><path d="M45.38 71.842c-7.601-.77-11.304-6.808-9.883-16.12s8.333-12.56 16.188-8.964c7.848 3.597 11.869 8.382 7.359 16.297s-6.939 9.469-13.664 8.787z" class="B"/><g class="D"><path d="M46.849 73.12c-7.596-.769-11.301-6.808-9.88-16.12s11.109-11.896 16.185-8.963c2.292 1.323 5.21 2.656 6.796 5.167 1.929 3.057 2.175 7.493.563 11.131-2.934 6.63-6.937 9.466-13.664 8.785z" class="C E"/><g stroke-width="1.77"><path d="M57.408 64.995c1.328-1.962.885-4.355-.818-4.387s-2.009 1.357-3.239 3.62c-1.236 2.264-1.532 3.65.168 3.682s2.563-.95 3.889-2.915zm-7.305-2.433c1.533-2.27 1.021-5.038-.945-5.071s-2.324 1.568-3.75 4.186-1.771 4.218.196 4.253 2.965-1.095 4.499-3.368z"/></g><g class="C G"><path d="M43.162 17.22s5.604-25.133 10.249-28.513 31.896-14.534 36.462-15.365c2.256-.408 6.762 1.247 12.417-1.556 5.646-2.8 5.654-7.7 2.667-12.069s-6.46-4.605-11.266-2.236-5.543 5.673-9.549 9.938c-1.78 1.894-32.308 8.721-37.789 13.608S25.953 6.97 25.262 11.365c0 0-2.021 6.641 7.032 9.886s10.868-4.031 10.868-4.031z"/><path d="M81.95 47.936c-4.581-2.648-7.412-6.664-4.259-12.779s11.685-7.709 13.096-1.277" class="J"/></g></g><path d="M43.162 17.22s-14.255 3.991-13.927-3.78c.33-7.857 22.6-37.3 17.118-32.412-5.477 4.889-20.4 25.943-21.091 30.338 0 0-2.457 6.319 7.032 9.886s10.868-4.032 10.868-4.032z" class="B"/></g></svg>